<?xml version="1.0" standalone="no"?>
<!DOCTYPE svg PUBLIC "-//W3C//DTD SVG 20010904//EN"
 "http://www.w3.org/TR/2001/REC-SVG-20010904/DTD/svg10.dtd">
<svg version="1.0" xmlns="http://www.w3.org/2000/svg"
 width="166.000000pt" height="166.000000pt" viewBox="0 0 166.000000 166.000000"
 preserveAspectRatio="xMidYMid meet">
<metadata>
Created by potrace 1.14, written by Peter Selinger 2001-2017
</metadata>
<g transform="translate(0.000000,166.000000) scale(0.100000,-0.100000)"
fill="#000000" stroke="none">
<path d="M960 1339 c-68 -10 -136 -46 -179 -96 -63 -71 -91 -181 -53 -214 9
-8 50 -52 91 -97 41 -45 78 -82 82 -82 4 0 58 34 119 76 l112 75 57 -62 58
-62 24 49 c32 66 32 168 0 239 -54 122 -182 193 -311 174z"/>
<path d="M515 1030 c-27 -39 -84 -116 -125 -173 -192 -264 -375 -519 -378
-526 -2 -7 460 -11 1380 -13 140 -1 248 3 248 8 0 7 -71 92 -130 154 -22 23
-333 371 -355 398 -11 12 -22 22 -26 22 -4 0 -57 -34 -119 -76 l-113 -76 -46
49 c-79 84 -233 252 -255 278 -12 14 -24 25 -26 25 -3 0 -27 -32 -55 -70z"/>
</g>
</svg>
